<?xml version="1.0" standalone="no"?>
<!DOCTYPE svg PUBLIC "-//W3C//DTD SVG 20010904//EN"
 "http://www.w3.org/TR/2001/REC-SVG-20010904/DTD/svg10.dtd">
<svg version="1.0" xmlns="http://www.w3.org/2000/svg"
 width="70.000000pt" height="70.000000pt" viewBox="0 0 70.000000 70.000000"
 preserveAspectRatio="xMidYMid meet">
<metadata>
Created by potrace 1.11, written by Peter Selinger 2001-2013
</metadata>
<g transform="translate(0.000000,70.000000) scale(0.100000,-0.100000)"
fill="#000000" stroke="none">
<path d="M314 691 c-5 -5 -16 -11 -24 -13 -8 -2 -20 -10 -27 -18 -9 -11 -12
-11 -13 -2 0 9 -7 8 -25 -4 -14 -9 -25 -12 -25 -8 0 5 -4 4 -8 -1 -4 -6 -25
-16 -47 -23 -22 -7 -49 -17 -60 -22 -11 -4 -35 -13 -52 -20 l-33 -12 0 -219
c0 -188 2 -219 15 -219 8 0 15 -5 15 -12 0 -6 3 -9 6 -5 4 3 19 0 34 -8 15 -8
30 -11 34 -8 3 4 6 1 6 -4 0 -6 11 -10 25 -9 13 2 22 -1 19 -5 -4 -8 10 -11
32 -8 4 0 10 -4 14 -10 3 -7 20 -13 37 -14 17 -1 31 -6 30 -12 -1 -5 5 -10 13
-10 8 -1 25 -6 37 -13 24 -13 67 -12 80 3 5 4 2 5 -6 0 -9 -5 -12 -4 -7 3 3 6
15 9 25 7 11 -2 22 3 25 11 3 9 10 13 16 9 5 -3 23 1 40 10 17 9 35 13 40 10
6 -4 12 0 15 7 5 12 18 17 63 20 6 1 12 6 12 11 0 5 9 7 20 4 11 -3 18 -1 15
4 -3 4 6 11 20 15 l25 6 0 219 c0 188 -2 219 -15 219 -8 0 -15 4 -15 8 0 5 -7
9 -15 10 -8 1 -22 3 -30 4 -8 1 -15 4 -15 7 0 4 -21 13 -47 20 -27 8 -50 18
-54 23 -3 4 -20 9 -38 11 -18 2 -36 9 -40 16 -4 6 -15 9 -24 5 -11 -4 -17 -1
-17 7 0 16 -61 24 -76 10z"/>
</g>
</svg>
